<svg width="42" height="41" viewBox="0 0 42 41" fill="none" xmlns="http://www.w3.org/2000/svg">
<path d="M28 3.4165H14C7 3.4165 3.5 6.83317 3.5 13.6665V35.8748C3.5 36.8144 4.2875 37.5832 5.25 37.5832H28C35 37.5832 38.5 34.1665 38.5 27.3332V13.6665C38.5 6.83317 35 3.4165 28 3.4165ZM27.125 21.7811H22.3125V26.479C22.3125 27.1794 21.7175 27.7603 21 27.7603C20.2825 27.7603 19.6875 27.1794 19.6875 26.479V21.7811H14.875C14.1575 21.7811 13.5625 21.2003 13.5625 20.4998C13.5625 19.7994 14.1575 19.2186 14.875 19.2186H19.6875V14.5207C19.6875 13.8203 20.2825 13.2394 21 13.2394C21.7175 13.2394 22.3125 13.8203 22.3125 14.5207V19.2186H27.125C27.8425 19.2186 28.4375 19.7994 28.4375 20.4998C28.4375 21.2003 27.8425 21.7811 27.125 21.7811Z" fill="#292D32"/>
</svg>
