<svg width="54" height="49" viewBox="0 0 54 49" fill="none" xmlns="http://www.w3.org/2000/svg">
<path d="M37.6875 7.26837V4.08337C37.6875 3.24629 36.9225 2.55212 36 2.55212C35.0775 2.55212 34.3125 3.24629 34.3125 4.08337V7.14587H19.6875V4.08337C19.6875 3.24629 18.9225 2.55212 18 2.55212C17.0775 2.55212 16.3125 3.24629 16.3125 4.08337V7.26837C10.2375 7.77879 7.29003 11.0659 6.84003 15.9455C6.79503 16.5375 7.33503 17.0275 7.96503 17.0275H46.035C46.6875 17.0275 47.2275 16.5171 47.16 15.9455C46.71 11.0659 43.7625 7.77879 37.6875 7.26837Z" fill="#292D32"/>
<path d="M45 20.09H9C7.7625 20.09 6.75 21.0087 6.75 22.1316V34.7083C6.75 40.8333 10.125 44.9166 18 44.9166H29.0925C30.645 44.9166 31.725 43.5487 31.23 42.2216C30.78 41.0375 30.3975 39.7308 30.3975 38.7916C30.3975 32.6054 35.955 27.5625 42.7725 27.5625C43.425 27.5625 44.0775 27.6033 44.7075 27.7054C46.0575 27.8891 47.2725 26.9295 47.2725 25.7045V22.152C47.25 21.0087 46.2375 20.09 45 20.09ZM20.7225 36.1579C20.4975 36.3416 20.25 36.4845 19.98 36.5866C19.71 36.6887 19.4175 36.75 19.125 36.75C18.8325 36.75 18.54 36.6887 18.27 36.5866C18 36.4845 17.7525 36.3416 17.5275 36.1579C17.1225 35.77 16.875 35.2391 16.875 34.7083C16.875 34.5858 16.8975 34.4429 16.92 34.3204C16.9425 34.1775 16.9875 34.055 17.055 33.9325C17.1 33.81 17.1675 33.6875 17.2575 33.565C17.325 33.4629 17.4375 33.3608 17.5275 33.2587C17.7525 33.075 18 32.932 18.27 32.83C18.81 32.6258 19.44 32.6258 19.98 32.83C20.25 32.932 20.4975 33.075 20.7225 33.2587C20.8125 33.3608 20.925 33.4629 20.9925 33.565C21.0825 33.6875 21.15 33.81 21.195 33.9325C21.2625 34.055 21.3075 34.1775 21.33 34.3204C21.3525 34.4429 21.375 34.5858 21.375 34.7083C21.375 35.2391 21.1275 35.77 20.7225 36.1579ZM20.7225 29.012C20.4975 29.1958 20.25 29.3387 19.98 29.4408C19.71 29.5429 19.4175 29.6041 19.125 29.6041C18.8325 29.6041 18.54 29.5429 18.27 29.4408C17.9775 29.3387 17.7525 29.1958 17.5275 29.012C17.1225 28.6241 16.875 28.0933 16.875 27.5625C16.875 27.0316 17.1225 26.5008 17.5275 26.1129C17.7525 25.9291 18 25.7862 18.27 25.6841C18.81 25.48 19.44 25.48 19.98 25.6841C20.25 25.7862 20.4975 25.9291 20.7225 26.1129C20.8125 26.215 20.925 26.317 20.9925 26.4191C21.0825 26.5416 21.15 26.6641 21.195 26.7866C21.2625 26.9091 21.3075 27.0316 21.33 27.1541C21.3525 27.297 21.375 27.44 21.375 27.5625C21.375 28.0933 21.1275 28.6241 20.7225 29.012ZM28.5975 29.012C28.17 29.3795 27.6075 29.6041 27 29.6041C26.7075 29.6041 26.415 29.5429 26.145 29.4408C25.8525 29.3387 25.6275 29.1958 25.4025 29.012C24.9975 28.6241 24.75 28.0933 24.75 27.5625C24.75 27.44 24.7725 27.297 24.795 27.1541C24.8175 27.0316 24.8625 26.9091 24.93 26.7866C24.975 26.6641 25.0425 26.5416 25.1325 26.4191C25.2225 26.317 25.3125 26.215 25.4025 26.1129C26.235 25.3575 27.7425 25.3575 28.5975 26.1129C28.6875 26.215 28.7775 26.317 28.8675 26.4191C28.9575 26.5416 29.025 26.6641 29.07 26.7866C29.1375 26.9091 29.1825 27.0316 29.205 27.1541C29.2275 27.297 29.25 27.44 29.25 27.5625C29.25 28.0933 29.0025 28.6241 28.5975 29.012Z" fill="#292D32"/>
<path d="M49.1175 33.0138C45.6075 29.8287 39.8925 29.8287 36.3825 33.0138C32.8725 36.1988 32.8725 41.3846 36.3825 44.5696C39.8925 47.7546 45.6075 47.7546 49.1175 44.5696C52.6275 41.3846 52.6275 36.1988 49.1175 33.0138ZM47.4075 39.935C47.115 40.2208 46.6875 40.3842 46.215 40.3842H44.55V41.9767C44.55 42.4054 44.37 42.7729 44.055 43.0588C43.74 43.3446 43.335 43.5079 42.8625 43.5079C41.94 43.5079 41.175 42.8137 41.175 41.9767V40.3842H39.4875C38.565 40.3842 37.8 39.7104 37.8 38.8529C37.8 38.0158 38.565 37.3217 39.4875 37.3217H41.175V35.8721C41.175 35.035 41.9175 34.3408 42.8625 34.3408C43.785 34.3408 44.55 35.035 44.55 35.8721V37.3217H46.215C47.16 37.3217 47.9025 38.0158 47.9025 38.8529C47.9025 39.2817 47.7225 39.6696 47.4075 39.935Z" fill="#292D32"/>
</svg>
