<svg width="62" height="56" viewBox="0 0 62 56" fill="none" xmlns="http://www.w3.org/2000/svg">
<path d="M56.8333 11.3166V39.06C56.8333 41.3233 54.7925 43.4 52.2867 43.68L51.4858 43.7733C47.2492 44.2866 41.2817 45.8733 36.4767 47.6933C34.7975 48.3233 32.9375 47.18 32.9375 45.5233V13.0666C32.9375 12.2033 33.48 11.41 34.3325 10.99C39.06 8.67996 46.2158 6.62663 51.0725 6.2533H51.2275C54.3275 6.2533 56.8333 8.51663 56.8333 11.3166Z" fill="#292D32"/>
<path d="M27.6673 10.99C22.9398 8.67996 15.784 6.62663 10.9273 6.2533H10.7465C7.64646 6.2533 5.14062 8.51663 5.14062 11.3166V39.06C5.14062 41.3233 7.18146 43.4 9.68729 43.68L10.4881 43.7733C14.7248 44.2866 20.6923 45.8733 25.4973 47.6933C27.1765 48.3233 29.0365 47.18 29.0365 45.5233V13.0666C29.0365 12.18 28.5198 11.41 27.6673 10.99ZM12.9165 18.06H18.729C19.7881 18.06 20.6665 18.8533 20.6665 19.81C20.6665 20.79 19.7881 21.56 18.729 21.56H12.9165C11.8573 21.56 10.979 20.79 10.979 19.81C10.979 18.8533 11.8573 18.06 12.9165 18.06ZM20.6665 28.56H12.9165C11.8573 28.56 10.979 27.79 10.979 26.81C10.979 25.8533 11.8573 25.06 12.9165 25.06H20.6665C21.7256 25.06 22.604 25.8533 22.604 26.81C22.604 27.79 21.7256 28.56 20.6665 28.56Z" fill="#292D32"/>
</svg>
