<svg width="70" height="66" viewBox="0 0 70 66" fill="none" xmlns="http://www.w3.org/2000/svg">
<path d="M60.7542 22.0276L41.6501 7.61755C37.9167 4.81255 32.0834 4.78505 28.3792 7.59005L9.27505 22.0276C6.53339 24.0901 4.87089 28.215 5.45422 31.46L9.12922 52.1951C9.97506 56.8426 14.5542 60.5001 19.5417 60.5001H50.4584C55.3876 60.5001 60.0542 56.7601 60.9001 52.1676L64.5751 31.4326C65.1001 28.2151 63.4376 24.0901 60.7542 22.0276ZM37.1876 49.5001C37.1876 50.6276 36.1959 51.5626 35.0001 51.5626C33.8042 51.5626 32.8126 50.6276 32.8126 49.5001V41.25C32.8126 40.1225 33.8042 39.1875 35.0001 39.1875C36.1959 39.1875 37.1876 40.1225 37.1876 41.25V49.5001Z" fill="#292D32"/>
</svg>
