<svg width="48" height="48" viewBox="0 0 48 48" fill="none" xmlns="http://www.w3.org/2000/svg">
<path d="M42.1199 23.6399L41.7999 23.2C41.2399 22.52 40.5799 21.98 39.8199 21.58C38.7999 21 37.6399 20.7 36.4399 20.7H11.5399C10.3399 20.7 9.19991 21 8.15991 21.58C7.37991 22 6.67991 22.5799 6.09991 23.2999C4.95991 24.7599 4.41991 26.56 4.59991 28.36L5.33991 37.7C5.59991 40.52 5.93991 44 12.2799 44H35.7199C42.0599 44 42.3799 40.52 42.6599 37.68L43.3999 28.3799C43.5799 26.6999 43.1399 25.0199 42.1199 23.6399ZM28.7799 34.68H19.1999C18.4199 34.68 17.7999 34.0399 17.7999 33.2799C17.7999 32.5199 18.4199 31.8799 19.1999 31.8799H28.7799C29.5599 31.8799 30.1799 32.5199 30.1799 33.2799C30.1799 34.0599 29.5599 34.68 28.7799 34.68Z" fill="#292D32"/>
<path d="M41.1871 18.0524C41.2083 18.4366 40.7961 18.6925 40.4438 18.5381C39.199 17.9927 37.8635 17.72 36.4598 17.72H11.5398C10.1341 17.72 8.75588 18.0071 7.51801 18.5475C7.16957 18.6996 6.75977 18.4551 6.75977 18.0749V13.32C6.75977 6.18 8.93977 4 16.0798 4H18.4398C21.2998 4 22.1998 4.92 23.3598 6.42L25.7598 9.62C26.2598 10.3 26.2798 10.34 27.1598 10.34H31.9198C38.5049 10.34 40.8638 12.198 41.1871 18.0524Z" fill="#292D32"/>
</svg>
