<svg width="48" height="43" viewBox="0 0 48 43" fill="none" xmlns="http://www.w3.org/2000/svg">
<path d="M33.7013 0H13.7987C5.15375 0 0 4.61125 0 12.3462V30.1538C0 36.125 3.06375 40.2262 8.455 41.7775C10.0225 42.2662 11.8275 42.5 13.7987 42.5H33.7013C35.6725 42.5 37.4775 42.2662 39.045 41.7775C44.4363 40.2262 47.5 36.125 47.5 30.1538V12.3462C47.5 4.61125 42.3463 0 33.7013 0ZM43.9375 30.1538C43.9375 34.7013 41.9425 37.57 37.9287 38.76C35.625 34.7012 30.1625 31.8112 23.75 31.8112C17.3375 31.8112 11.8988 34.68 9.57125 38.76H9.5475C5.58125 37.6125 3.5625 34.7225 3.5625 30.175V12.3462C3.5625 6.35375 7.10125 3.1875 13.7987 3.1875H33.7013C40.3988 3.1875 43.9375 6.35375 43.9375 12.3462V30.1538Z" fill="#292D32"/>
<path d="M23.7501 12.75C19.0476 12.75 15.2476 16.15 15.2476 20.3575C15.2476 24.565 19.0476 27.9863 23.7501 27.9863C28.4526 27.9863 32.2526 24.565 32.2526 20.3575C32.2526 16.15 28.4526 12.75 23.7501 12.75Z" fill="#292D32"/>
</svg>
