<svg width="17" height="13" viewBox="0 0 17 13" fill="none" xmlns="http://www.w3.org/2000/svg">
<path d="M8.50049 1.5835C9.37831 1.58356 10.1545 1.85628 10.7007 2.27393C11.2464 2.69122 11.5414 3.23224 11.5415 3.7915C11.5415 4.35088 11.2465 4.89269 10.7007 5.31006C10.1545 5.72764 9.37822 6.00042 8.50049 6.00049C7.62251 6.00049 6.84557 5.72778 6.29932 5.31006C5.75352 4.89269 5.4585 4.35088 5.4585 3.7915C5.45861 3.23229 5.75372 2.6912 6.29932 2.27393C6.84557 1.8562 7.6225 1.5835 8.50049 1.5835Z" stroke="black"/>
<path d="M8.49951 8.354C10.1941 8.354 11.7089 8.78957 12.7837 9.46729C13.7716 10.0904 14.3343 10.8781 14.4243 11.687H2.57568C2.66573 10.8781 3.22818 10.0904 4.21631 9.46729C5.29101 8.7896 6.80506 8.35405 8.49951 8.354Z" stroke="black"/>
</svg>
