<svg width="67" height="48" viewBox="0 0 67 48" fill="none" xmlns="http://www.w3.org/2000/svg">
<path d="M50.2502 6H16.7502C10.5806 6 5.5835 9.56 5.5835 13.94V34.06C5.5835 38.44 10.5806 42 16.7502 42H50.2502C56.4197 42 61.4168 38.44 61.4168 34.06V13.94C61.4168 9.56 56.4197 6 50.2502 6ZM23.7293 14.34C27.2747 14.34 30.1781 16.42 30.1781 18.96C30.1781 21.5 27.2747 23.58 23.7293 23.58C20.1839 23.58 17.2806 21.5 17.2806 18.96C17.2806 16.42 20.1839 14.34 23.7293 14.34ZM34.5331 33.32C34.2818 33.52 33.891 33.64 33.5002 33.64H13.9585C13.5677 33.64 13.1768 33.52 12.9256 33.32C12.6743 33.12 12.5347 32.84 12.5627 32.56C13.0372 29.2 16.7781 26.54 21.4681 26.22C22.9477 26.12 24.4831 26.12 25.9627 26.22C30.6527 26.54 34.4214 29.2 34.8681 32.56C34.9239 32.84 34.7843 33.12 34.5331 33.32ZM53.0418 33.5H47.4585C46.3139 33.5 45.3647 32.82 45.3647 32C45.3647 31.18 46.3139 30.5 47.4585 30.5H53.0418C54.1864 30.5 55.1356 31.18 55.1356 32C55.1356 32.82 54.1864 33.5 53.0418 33.5ZM53.0418 25.5H41.8752C40.7306 25.5 39.7814 24.82 39.7814 24C39.7814 23.18 40.7306 22.5 41.8752 22.5H53.0418C54.1864 22.5 55.1356 23.18 55.1356 24C55.1356 24.82 54.1864 25.5 53.0418 25.5ZM53.0418 17.5H39.0835C37.9389 17.5 36.9897 16.82 36.9897 16C36.9897 15.18 37.9389 14.5 39.0835 14.5H53.0418C54.1864 14.5 55.1356 15.18 55.1356 16C55.1356 16.82 54.1864 17.5 53.0418 17.5Z" fill="#292D32"/>
</svg>
